<svg width="18" height="18" viewBox="0 0 18 18" fill="none" xmlns="http://www.w3.org/2000/svg">
<path d="M2.00023 16H3.42523L13.2002 6.225L11.7752 4.8L2.00023 14.575V16ZM0.000234375 18V13.75L13.2002 0.575C13.4002 0.391666 13.6211 0.25 13.8627 0.150001C14.1044 0.0500002 14.3586 0 14.6252 0C14.8919 0 15.1502 0.0500002 15.4002 0.150001C15.6502 0.25 15.8669 0.4 16.0502 0.599999L17.4252 2C17.6252 2.18333 17.7711 2.4 17.8627 2.65C17.9544 2.9 18.0002 3.15 18.0002 3.4C18.0002 3.66667 17.9544 3.92083 17.8627 4.1625C17.7711 4.40417 17.6252 4.625 17.4252 4.825L4.25023 18H0.000234375ZM16.0002 3.4L14.6002 2L16.0002 3.4ZM12.4752 5.525L11.7752 4.8L13.2002 6.225L12.4752 5.525Z" fill="#94A3B8"/>
</svg>
